<?xml version="1.0" standalone="no"?>
<!DOCTYPE svg PUBLIC "-//W3C//DTD SVG 20010904//EN"
 "http://www.w3.org/TR/2001/REC-SVG-20010904/DTD/svg10.dtd">
<svg version="1.0" xmlns="http://www.w3.org/2000/svg"
 width="700.000000pt" height="700.000000pt" viewBox="0 0 700.000000 700.000000"
 preserveAspectRatio="xMidYMid meet">
<metadata>
Created by potrace 1.11, written by Peter Selinger 2001-2013
</metadata>
<g transform="translate(0.000000,700.000000) scale(0.100000,-0.100000)"
fill="#000000" stroke="none">
<path d="M0 3500 l0 -3500 3500 0 3500 0 0 3500 0 3500 -3500 0 -3500 0 0
-3500z m3622 2108 l3 -273 95 -7 c185 -13 384 -66 547 -146 40 -19 73 -40 73
-46 0 -5 -25 -78 -56 -160 -31 -83 -61 -161 -65 -174 l-9 -22 -82 41 c-312
157 -727 188 -965 72 -178 -87 -285 -291 -255 -485 35 -228 199 -363 692 -573
601 -255 839 -519 866 -961 31 -490 -304 -896 -828 -1004 l-58 -11 0 -290 0
-289 -168 0 -169 0 -6 276 c-3 151 -7 278 -10 280 -2 2 -53 9 -113 14 -226 21
-424 74 -599 161 -157 77 -148 49 -75 256 35 98 65 180 67 183 3 2 19 -4 36
-14 223 -131 456 -202 702 -213 268 -11 446 45 592 188 91 89 137 189 149 322
13 155 -43 304 -160 422 -112 114 -253 196 -543 316 -440 181 -672 362 -787
611 -45 96 -66 203 -66 333 0 253 88 456 273 631 127 120 263 191 463 242
l104 27 0 282 0 283 175 0 175 0 2 -272z"/>
</g>
</svg>
